<svg width="22" height="20" viewBox="0 0 22 20" fill="none" xmlns="http://www.w3.org/2000/svg">
<path d="M2.86917 0.226502C1.90667 0.796668 0.0183333 2.96733 0 3.5375V4.48167C0 5.67609 1.11833 6.7275 2.13125 6.7275C3.35042 6.7275 4.36425 5.71734 4.36425 4.51834C4.36425 5.71734 5.34508 6.7275 6.56425 6.7275C7.78158 6.7275 8.72942 5.71734 8.72942 4.51834C8.72942 5.71734 9.77167 6.7275 10.9899 6.7275H11.0119C12.2311 6.7275 13.2724 5.71734 13.2724 4.51834C13.2724 5.71734 14.2202 6.7275 15.4385 6.7275C16.6577 6.7275 17.6385 5.71734 17.6385 4.51834C17.6385 5.71734 18.6523 6.7275 19.8706 6.7275C20.8817 6.7275 22 5.67517 22 4.48167V3.5375C21.9817 2.96917 20.0915 0.796668 19.1308 0.226502C16.1489 0.122002 14.0818 0.103668 11 0.104585C7.91817 0.104585 3.71708 0.153168 2.86917 0.226502ZM8.71383 6.16375C8.59725 6.36679 8.45285 6.55253 8.28483 6.71559C7.8265 7.16475 7.194 7.44433 6.50008 7.44433C5.83186 7.44463 5.19013 7.183 4.71258 6.71559C4.5514 6.55556 4.41375 6.37347 4.30375 6.17475C4.18116 6.3749 4.03121 6.55693 3.85825 6.71559C3.38059 7.18284 2.73894 7.44443 2.07075 7.44433C1.98802 7.44178 1.90627 7.42568 1.82875 7.39667C1.74443 8.29588 1.69306 9.19787 1.67475 10.1008V10.1054L1.66925 11.1752C1.68758 13.3147 1.45842 18.1088 2.61342 19.2877C4.40275 19.7038 7.69633 19.8945 11.0009 19.8954C14.3055 19.8954 17.5991 19.7029 19.3884 19.2868C20.5434 18.1098 20.3143 13.3156 20.3326 11.1761L20.3271 10.1063V10.1027C20.3093 9.19968 20.2579 8.29767 20.1731 7.3985C20.0957 7.42698 20.0144 7.44307 19.932 7.44617C19.2638 7.44627 18.6222 7.18467 18.1445 6.71742C17.971 6.55926 17.821 6.37714 17.699 6.17659C17.5826 6.37825 17.4561 6.55425 17.2893 6.71742C16.8116 7.1845 16.1698 7.44579 15.5017 7.44525C14.8051 7.44525 14.1763 7.1675 13.7161 6.71834C13.5481 6.55529 13.4037 6.36954 13.2871 6.1665C13.1719 6.36927 13.0291 6.555 12.8627 6.71834C12.3849 7.18533 11.7432 7.44661 11.0752 7.44617H10.9285C10.2605 7.44685 9.6189 7.18592 9.141 6.71925C8.97426 6.55598 8.8311 6.37024 8.71567 6.16742L8.71383 6.16375ZM6.87683 8.53975C7.60558 8.54158 8.25183 8.53975 9.05208 9.41333C9.69922 9.34655 10.3494 9.31381 11 9.31525C11.66 9.31525 12.3182 9.34733 12.9479 9.41333C13.7482 8.53975 14.3944 8.5425 15.1223 8.53975C15.4669 8.53975 16.8419 8.53975 17.7989 11.2293L18.8283 14.9216C19.591 17.667 18.5845 17.7339 17.3287 17.7358C15.4678 17.667 14.4357 16.3149 14.4357 14.9628C13.4053 15.1315 12.2027 15.2158 11 15.2168C9.79733 15.2168 8.59467 15.1315 7.56433 14.9628C7.56433 16.3149 6.53308 17.667 4.67133 17.7367C3.4155 17.733 2.409 17.6661 3.17167 14.9207L4.20017 11.2293C5.15808 8.53975 6.53308 8.53975 6.87683 8.53975ZM11 10.6545C10.9982 10.6563 9.03833 12.4548 8.68725 13.0947L9.97058 13.0433V14.1617C9.97058 14.213 10.4839 14.1919 11 14.1681C11.5152 14.1919 12.0303 14.2139 12.0303 14.1608V13.0424L13.3137 13.0928C12.9598 12.4539 11 10.6545 11 10.6545Z" fill="white"/>
</svg>
